<svg width="112" height="163" viewBox="0 0 112 163" fill="none" xmlns="http://www.w3.org/2000/svg">
<g clip-path="url(#clip0_721_9278)">
<path d="M101.34 0H9.77C4.37418 0 0 4.37418 0 9.77V101.34C0 106.736 4.37418 111.11 9.77 111.11H101.34C106.736 111.11 111.11 106.736 111.11 101.34V9.77C111.11 4.37418 106.736 0 101.34 0Z" fill="url(#paint0_linear_721_9278)"/>
<path d="M97.0895 36.75H15.7695V78.02H97.0895V36.75Z" fill="url(#paint1_linear_721_9278)"/>
<path d="M93.5999 34.53H70.5699V30.02C70.5699 26.69 67.8699 24 64.5499 24H48.4899C45.1599 24 42.4699 26.7 42.4699 30.02V34.53H19.4399C16.1099 34.53 13.4199 37.23 13.4199 40.55V72.66C13.4199 75.99 16.1199 78.68 19.4399 78.68H93.6099C96.9399 78.68 99.6299 75.98 99.6299 72.66V40.55C99.6299 37.22 96.9299 34.53 93.6099 34.53H93.5999ZM46.4799 30.02C46.4799 28.91 47.3799 28.01 48.4899 28.01H64.5499C65.0799 28.01 65.5899 28.22 65.9699 28.6C66.3499 28.98 66.5599 29.49 66.5599 30.02V34.53H46.4799V30.02ZM93.5999 74.67H19.4299C18.3199 74.67 17.4199 73.77 17.4199 72.66V51.42L20.8499 54.85C21.9799 55.98 28.5099 55.62 30.1099 55.61H54.5099V58.12C54.5099 59.23 55.4099 60.13 56.5199 60.13C57.6299 60.13 58.5299 59.23 58.5299 58.12V55.61H87.9299C89.5299 55.61 91.0599 54.98 92.1899 53.85L95.6199 51.42V72.66C95.6199 73.19 95.4099 73.7 95.0299 74.08C94.6499 74.46 94.1399 74.67 93.6099 74.67H93.5999Z" fill="white"/>
<path d="M34.2395 86.6294C38.9174 86.6294 42.7095 82.8373 42.7095 78.1595C42.7095 73.4816 38.9174 69.6895 34.2395 69.6895C29.5617 69.6895 25.7695 73.4816 25.7695 78.1595C25.7695 82.8373 29.5617 86.6294 34.2395 86.6294Z" fill="url(#paint2_linear_721_9278)"/>
<path d="M34.2495 89.9598C27.7395 89.9598 22.4395 84.6598 22.4395 78.1498C22.4395 71.6398 27.7395 66.3398 34.2495 66.3398C40.7595 66.3398 46.0595 71.6398 46.0595 78.1498C46.0595 84.6598 40.7595 89.9598 34.2495 89.9598ZM34.2495 69.7398C29.6095 69.7398 25.8295 73.5199 25.8295 78.1599C25.8295 82.7999 29.6095 86.5798 34.2495 86.5798C38.8895 86.5798 42.6695 82.7999 42.6695 78.1599C42.6695 73.5199 38.8895 69.7398 34.2495 69.7398Z" fill="white"/>
<path d="M79.4192 86.6294C84.0971 86.6294 87.8892 82.8373 87.8892 78.1595C87.8892 73.4816 84.0971 69.6895 79.4192 69.6895C74.7414 69.6895 70.9492 73.4816 70.9492 78.1595C70.9492 82.8373 74.7414 86.6294 79.4192 86.6294Z" fill="url(#paint3_linear_721_9278)"/>
<path d="M79.4194 89.9598C72.9094 89.9598 67.6094 84.6598 67.6094 78.1498C67.6094 71.6398 72.9094 66.3398 79.4194 66.3398C85.9294 66.3398 91.2294 71.6398 91.2294 78.1498C91.2294 84.6598 85.9294 89.9598 79.4194 89.9598ZM79.4194 69.7398C74.7794 69.7398 70.9994 73.5199 70.9994 78.1599C70.9994 82.7999 74.7794 86.5798 79.4194 86.5798C84.0594 86.5798 87.8394 82.7999 87.8394 78.1599C87.8394 73.5199 84.0594 69.7398 79.4194 69.7398Z" fill="white"/>
<path d="M53.9394 52.7797H29.5394C29.0094 52.7797 23.4994 52.5697 23.1194 52.1897L16.8594 46.9197V41.7297C16.8594 40.6197 17.7594 39.7197 18.8694 39.7197H93.0394C93.5694 39.7197 94.0794 39.9297 94.4594 40.3097C94.8394 40.6897 95.0494 41.1997 95.0494 41.7297V46.9197L88.7794 52.1897C88.3994 52.5597 87.8894 52.7697 87.3594 52.7797H57.9594" fill="url(#paint4_linear_721_9278)"/>
<path d="M17.4199 51.2402C17.4199 51.2402 18.2799 52.0802 19.1799 53.0002C20.0799 53.9202 20.7499 55.6202 23.0099 55.6202L88.3299 55.7102C90.1499 55.7102 91.4399 54.5802 92.5699 53.6402C93.6999 52.7002 95.5799 51.4802 95.5799 51.4802L95.4899 73.7902L17.5599 74.7302V51.5802L17.4299 51.2402H17.4199Z" fill="url(#paint5_linear_721_9278)"/>
<g filter="url(#filter0_d_721_9278)">
<path d="M54.4609 55.6201V58.1301C54.4609 59.2401 55.3609 60.1401 56.4709 60.1401C57.5809 60.1401 58.4809 59.2401 58.4809 58.1301V55.6201" fill="white"/>
</g>
<path d="M10.8178 124.72H20.1978V126.32H12.7178V130.86H19.2778V132.46H12.7178V139H10.8178V124.72ZM22.1222 124.72H23.8222V139H22.1222V124.72ZM28.2558 126.8H26.5558V124.72H28.2558V126.8ZM26.5558 128.66H28.2558V139H26.5558V128.66ZM39.8094 138.12C39.8094 139.813 39.4227 141.08 38.6494 141.92C37.876 142.76 36.6627 143.18 35.0094 143.18C34.5294 143.18 34.036 143.127 33.5294 143.02C33.036 142.913 32.5827 142.74 32.1694 142.5C31.7694 142.26 31.436 141.947 31.1694 141.56C30.9027 141.173 30.756 140.7 30.7294 140.14H32.4294C32.4427 140.447 32.536 140.707 32.7094 140.92C32.896 141.133 33.116 141.307 33.3694 141.44C33.636 141.573 33.9227 141.667 34.2294 141.72C34.536 141.787 34.8294 141.82 35.1094 141.82C35.6694 141.82 36.1427 141.72 36.5294 141.52C36.916 141.333 37.236 141.067 37.4894 140.72C37.7427 140.387 37.9227 139.98 38.0294 139.5C38.1494 139.02 38.2094 138.493 38.2094 137.92V137.24H38.1694C37.876 137.88 37.4294 138.353 36.8294 138.66C36.2427 138.953 35.616 139.1 34.9494 139.1C34.176 139.1 33.5027 138.96 32.9294 138.68C32.356 138.4 31.876 138.027 31.4894 137.56C31.1027 137.08 30.8094 136.527 30.6094 135.9C30.4227 135.26 30.3294 134.587 30.3294 133.88C30.3294 133.267 30.4094 132.64 30.5694 132C30.7294 131.347 30.996 130.76 31.3694 130.24C31.7427 129.707 32.236 129.273 32.8494 128.94C33.4627 128.593 34.216 128.42 35.1094 128.42C35.7627 128.42 36.3627 128.567 36.9094 128.86C37.456 129.14 37.8827 129.567 38.1894 130.14H38.2094V128.66H39.8094V138.12ZM35.0494 137.62C35.6094 137.62 36.0827 137.507 36.4694 137.28C36.8694 137.04 37.1894 136.733 37.4294 136.36C37.6694 135.973 37.8427 135.54 37.9494 135.06C38.0694 134.58 38.1294 134.1 38.1294 133.62C38.1294 133.167 38.076 132.72 37.9694 132.28C37.8627 131.84 37.6894 131.447 37.4494 131.1C37.2227 130.74 36.9227 130.453 36.5494 130.24C36.176 130.027 35.7227 129.92 35.1894 129.92C34.6427 129.92 34.176 130.027 33.7894 130.24C33.4027 130.44 33.0827 130.713 32.8294 131.06C32.5894 131.407 32.4094 131.807 32.2894 132.26C32.1827 132.713 32.1294 133.187 32.1294 133.68C32.1294 134.147 32.176 134.613 32.2694 135.08C32.3627 135.547 32.5227 135.973 32.7494 136.36C32.976 136.733 33.276 137.04 33.6494 137.28C34.0227 137.507 34.4894 137.62 35.0494 137.62ZM42.3738 124.72H44.0738V130.18H44.1138C44.2471 129.86 44.4338 129.593 44.6738 129.38C44.9138 129.153 45.1804 128.973 45.4738 128.84C45.7804 128.693 46.0938 128.587 46.4138 128.52C46.7471 128.453 47.0671 128.42 47.3738 128.42C48.0538 128.42 48.6204 128.513 49.0738 128.7C49.5271 128.887 49.8938 129.147 50.1738 129.48C50.4538 129.813 50.6471 130.213 50.7538 130.68C50.8738 131.133 50.9338 131.64 50.9338 132.2V139H49.2338V132C49.2338 131.36 49.0471 130.853 48.6738 130.48C48.3004 130.107 47.7871 129.92 47.1338 129.92C46.6138 129.92 46.1604 130 45.7738 130.16C45.4004 130.32 45.0871 130.547 44.8338 130.84C44.5804 131.133 44.3871 131.48 44.2538 131.88C44.1338 132.267 44.0738 132.693 44.0738 133.16V139H42.3738V124.72ZM55.847 128.66H57.907V130.16H55.847V136.58C55.847 136.78 55.8604 136.94 55.887 137.06C55.927 137.18 55.9937 137.273 56.087 137.34C56.1804 137.407 56.307 137.453 56.467 137.48C56.6404 137.493 56.8604 137.5 57.127 137.5H57.907V139H56.607C56.167 139 55.787 138.973 55.467 138.92C55.1604 138.853 54.907 138.74 54.707 138.58C54.5204 138.42 54.3804 138.193 54.287 137.9C54.1937 137.607 54.147 137.22 54.147 136.74V130.16H52.387V128.66H54.147V125.56H55.847V128.66ZM66.8156 131.98C66.6823 131.327 66.4023 130.82 65.9756 130.46C65.549 130.1 64.9756 129.92 64.2556 129.92C63.6423 129.92 63.129 130.033 62.7156 130.26C62.3023 130.487 61.969 130.787 61.7156 131.16C61.4756 131.533 61.3023 131.967 61.1956 132.46C61.089 132.94 61.0356 133.44 61.0356 133.96C61.0356 134.44 61.089 134.907 61.1956 135.36C61.3156 135.813 61.4956 136.22 61.7356 136.58C61.9756 136.927 62.289 137.207 62.6756 137.42C63.0623 137.633 63.5223 137.74 64.0556 137.74C64.8956 137.74 65.549 137.52 66.0156 137.08C66.4956 136.64 66.789 136.02 66.8956 135.22H68.6356C68.449 136.5 67.969 137.487 67.1956 138.18C66.4356 138.873 65.3956 139.22 64.0756 139.22C63.289 139.22 62.589 139.093 61.9756 138.84C61.3756 138.587 60.869 138.227 60.4556 137.76C60.0556 137.293 59.749 136.74 59.5356 136.1C59.3356 135.447 59.2356 134.733 59.2356 133.96C59.2356 133.187 59.3356 132.467 59.5356 131.8C59.7356 131.12 60.0356 130.533 60.4356 130.04C60.849 129.533 61.3623 129.14 61.9756 128.86C62.589 128.567 63.3023 128.42 64.1156 128.42C64.7023 128.42 65.249 128.493 65.7556 128.64C66.2756 128.773 66.729 128.987 67.1156 129.28C67.5156 129.573 67.8423 129.947 68.0956 130.4C68.349 130.84 68.509 131.367 68.5756 131.98H66.8156ZM79.6978 138.96C79.4045 139.133 78.9978 139.22 78.4778 139.22C78.0378 139.22 77.6845 139.1 77.4178 138.86C77.1645 138.607 77.0378 138.2 77.0378 137.64C76.5711 138.2 76.0245 138.607 75.3978 138.86C74.7845 139.1 74.1178 139.22 73.3978 139.22C72.9311 139.22 72.4845 139.167 72.0578 139.06C71.6445 138.953 71.2845 138.787 70.9778 138.56C70.6711 138.333 70.4245 138.04 70.2378 137.68C70.0645 137.307 69.9778 136.86 69.9778 136.34C69.9778 135.753 70.0778 135.273 70.2778 134.9C70.4778 134.527 70.7378 134.227 71.0578 134C71.3911 133.76 71.7645 133.58 72.1778 133.46C72.6045 133.34 73.0378 133.24 73.4778 133.16C73.9445 133.067 74.3845 133 74.7978 132.96C75.2245 132.907 75.5978 132.84 75.9178 132.76C76.2378 132.667 76.4911 132.54 76.6778 132.38C76.8645 132.207 76.9578 131.96 76.9578 131.64C76.9578 131.267 76.8845 130.967 76.7378 130.74C76.6045 130.513 76.4245 130.34 76.1978 130.22C75.9845 130.1 75.7378 130.02 75.4578 129.98C75.1911 129.94 74.9245 129.92 74.6578 129.92C73.9378 129.92 73.3378 130.06 72.8578 130.34C72.3778 130.607 72.1178 131.12 72.0778 131.88H70.3778C70.4045 131.24 70.5378 130.7 70.7778 130.26C71.0178 129.82 71.3378 129.467 71.7378 129.2C72.1378 128.92 72.5911 128.72 73.0978 128.6C73.6178 128.48 74.1711 128.42 74.7578 128.42C75.2245 128.42 75.6845 128.453 76.1378 128.52C76.6045 128.587 77.0245 128.727 77.3978 128.94C77.7711 129.14 78.0711 129.427 78.2978 129.8C78.5245 130.173 78.6378 130.66 78.6378 131.26V136.58C78.6378 136.98 78.6578 137.273 78.6978 137.46C78.7511 137.647 78.9111 137.74 79.1778 137.74C79.3245 137.74 79.4978 137.707 79.6978 137.64V138.96ZM76.9378 133.66C76.7245 133.82 76.4445 133.94 76.0978 134.02C75.7511 134.087 75.3845 134.147 74.9978 134.2C74.6245 134.24 74.2445 134.293 73.8578 134.36C73.4711 134.413 73.1245 134.507 72.8178 134.64C72.5111 134.773 72.2578 134.967 72.0578 135.22C71.8711 135.46 71.7778 135.793 71.7778 136.22C71.7778 136.5 71.8311 136.74 71.9378 136.94C72.0578 137.127 72.2045 137.28 72.3778 137.4C72.5645 137.52 72.7778 137.607 73.0178 137.66C73.2578 137.713 73.5111 137.74 73.7778 137.74C74.3378 137.74 74.8178 137.667 75.2178 137.52C75.6178 137.36 75.9445 137.167 76.1978 136.94C76.4511 136.7 76.6378 136.447 76.7578 136.18C76.8778 135.9 76.9378 135.64 76.9378 135.4V133.66ZM82.32 135.74C82.3333 136.113 82.42 136.433 82.58 136.7C82.74 136.953 82.9467 137.16 83.2 137.32C83.4667 137.467 83.76 137.573 84.08 137.64C84.4133 137.707 84.7533 137.74 85.1 137.74C85.3667 137.74 85.6467 137.72 85.94 137.68C86.2333 137.64 86.5 137.567 86.74 137.46C86.9933 137.353 87.2 137.2 87.36 137C87.52 136.787 87.6 136.52 87.6 136.2C87.6 135.76 87.4333 135.427 87.1 135.2C86.7667 134.973 86.3467 134.793 85.84 134.66C85.3467 134.513 84.8067 134.387 84.22 134.28C83.6333 134.16 83.0867 134 82.58 133.8C82.0867 133.587 81.6733 133.293 81.34 132.92C81.0067 132.547 80.84 132.027 80.84 131.36C80.84 130.84 80.9533 130.393 81.18 130.02C81.42 129.647 81.72 129.347 82.08 129.12C82.4533 128.88 82.8667 128.707 83.32 128.6C83.7867 128.48 84.2467 128.42 84.7 128.42C85.2867 128.42 85.8267 128.473 86.32 128.58C86.8133 128.673 87.2467 128.847 87.62 129.1C88.0067 129.34 88.3133 129.673 88.54 130.1C88.7667 130.513 88.9 131.033 88.94 131.66H87.24C87.2133 131.327 87.1267 131.053 86.98 130.84C86.8333 130.613 86.6467 130.433 86.42 130.3C86.1933 130.167 85.94 130.073 85.66 130.02C85.3933 129.953 85.12 129.92 84.84 129.92C84.5867 129.92 84.3267 129.94 84.06 129.98C83.8067 130.02 83.5733 130.093 83.36 130.2C83.1467 130.293 82.9733 130.427 82.84 130.6C82.7067 130.76 82.64 130.973 82.64 131.24C82.64 131.533 82.74 131.78 82.94 131.98C83.1533 132.167 83.42 132.327 83.74 132.46C84.06 132.58 84.42 132.687 84.82 132.78C85.22 132.86 85.62 132.947 86.02 133.04C86.4467 133.133 86.86 133.247 87.26 133.38C87.6733 133.513 88.0333 133.693 88.34 133.92C88.66 134.133 88.9133 134.407 89.1 134.74C89.3 135.073 89.4 135.487 89.4 135.98C89.4 136.607 89.2667 137.127 89 137.54C88.7467 137.953 88.4067 138.287 87.98 138.54C87.5667 138.793 87.0933 138.967 86.56 139.06C86.04 139.167 85.52 139.22 85 139.22C84.4267 139.22 83.88 139.16 83.36 139.04C82.84 138.92 82.38 138.727 81.98 138.46C81.58 138.18 81.26 137.82 81.02 137.38C80.78 136.927 80.6467 136.38 80.62 135.74H82.32ZM98.46 132.84C98.4333 132.44 98.34 132.06 98.18 131.7C98.0333 131.34 97.8267 131.033 97.56 130.78C97.3067 130.513 97 130.307 96.64 130.16C96.2933 130 95.9067 129.92 95.48 129.92C95.04 129.92 94.64 130 94.28 130.16C93.9333 130.307 93.6333 130.513 93.38 130.78C93.1267 131.047 92.9267 131.36 92.78 131.72C92.6333 132.067 92.5467 132.44 92.52 132.84H98.46ZM100.1 135.72C99.8733 136.88 99.3733 137.753 98.6 138.34C97.8267 138.927 96.8533 139.22 95.68 139.22C94.8533 139.22 94.1333 139.087 93.52 138.82C92.92 138.553 92.4133 138.18 92 137.7C91.5867 137.22 91.2733 136.647 91.06 135.98C90.86 135.313 90.7467 134.587 90.72 133.8C90.72 133.013 90.84 132.293 91.08 131.64C91.32 130.987 91.6533 130.42 92.08 129.94C92.52 129.46 93.0333 129.087 93.62 128.82C94.22 128.553 94.8733 128.42 95.58 128.42C96.5 128.42 97.26 128.613 97.86 129C98.4733 129.373 98.96 129.853 99.32 130.44C99.6933 131.027 99.9467 131.667 100.08 132.36C100.227 133.053 100.287 133.713 100.26 134.34H92.52C92.5067 134.793 92.56 135.227 92.68 135.64C92.8 136.04 92.9933 136.4 93.26 136.72C93.5267 137.027 93.8667 137.273 94.28 137.46C94.6933 137.647 95.18 137.74 95.74 137.74C96.46 137.74 97.0467 137.573 97.5 137.24C97.9667 136.907 98.2733 136.4 98.42 135.72H100.1Z" fill="white"/>
</g>
<defs>
<filter id="filter0_d_721_9278" x="53.4609" y="55.6201" width="6.01953" height="6.51953" filterUnits="userSpaceOnUse" color-interpolation-filters="sRGB">
<feFlood flood-opacity="0" result="BackgroundImageFix"/>
<feColorMatrix in="SourceAlpha" type="matrix" values="0 0 0 0 0 0 0 0 0 0 0 0 0 0 0 0 0 0 127 0" result="hardAlpha"/>
<feOffset dy="1"/>
<feGaussianBlur stdDeviation="0.5"/>
<feColorMatrix type="matrix" values="0 0 0 0 0 0 0 0 0 0 0 0 0 0 0 0 0 0 0.2 0"/>
<feBlend mode="normal" in2="BackgroundImageFix" result="effect1_dropShadow_721_9278"/>
<feBlend mode="normal" in="SourceGraphic" in2="effect1_dropShadow_721_9278" result="shape"/>
</filter>
<linearGradient id="paint0_linear_721_9278" x1="15.41" y1="-13.97" x2="100.64" y2="133.65" gradientUnits="userSpaceOnUse">
<stop stop-color="#00BCEE"/>
<stop offset="0.16" stop-color="#1197E5"/>
<stop offset="0.42" stop-color="#2D72D6"/>
<stop offset="1" stop-color="#6762B7"/>
</linearGradient>
<linearGradient id="paint1_linear_721_9278" x1="66.6495" y1="34.01" x2="34.1695" y2="108.27" gradientUnits="userSpaceOnUse">
<stop stop-color="#00BCEE"/>
<stop offset="0.16" stop-color="#1197E5"/>
<stop offset="0.42" stop-color="#2D72D6"/>
<stop offset="1" stop-color="#6762B7"/>
</linearGradient>
<linearGradient id="paint2_linear_721_9278" x1="-10.0305" y1="1.47948" x2="72.1395" y2="143.779" gradientUnits="userSpaceOnUse">
<stop stop-color="#00BCEE"/>
<stop offset="0.16" stop-color="#1197E5"/>
<stop offset="0.42" stop-color="#2D72D6"/>
<stop offset="1" stop-color="#6762B7"/>
</linearGradient>
<linearGradient id="paint3_linear_721_9278" x1="23.8492" y1="-18.0905" x2="106.019" y2="124.219" gradientUnits="userSpaceOnUse">
<stop stop-color="#00BCEE"/>
<stop offset="0.16" stop-color="#1197E5"/>
<stop offset="0.42" stop-color="#2D72D6"/>
<stop offset="1" stop-color="#6762B7"/>
</linearGradient>
<linearGradient id="paint4_linear_721_9278" x1="61.3794" y1="31.7097" x2="28.9094" y2="105.97" gradientUnits="userSpaceOnUse">
<stop stop-color="#00BCEE"/>
<stop offset="0.16" stop-color="#1197E5"/>
<stop offset="0.42" stop-color="#2D72D6"/>
<stop offset="1" stop-color="#6762B7"/>
</linearGradient>
<linearGradient id="paint5_linear_721_9278" x1="55.6099" y1="51.8502" x2="57.8699" y2="78.3902" gradientUnits="userSpaceOnUse">
<stop stop-color="#231F20" stop-opacity="0.5"/>
<stop offset="0.36" stop-color="#234D7C" stop-opacity="0.25"/>
<stop offset="0.91" stop-color="#247EDB" stop-opacity="0"/>
</linearGradient>
<clipPath id="clip0_721_9278">
<rect width="112" height="163" fill="white"/>
</clipPath>
</defs>
</svg>
