<svg width="108" height="108" viewBox="0 0 108 108" fill="none" xmlns="http://www.w3.org/2000/svg">
<g clip-path="url(#clip0_721_9232)">
<path d="M107.29 0H0V107.29H107.29V0Z" fill="#231F20"/>
<path d="M12.1308 80.9902H11.4508C10.2008 80.9902 9.49078 81.4502 9.49078 83.0702V84.8502H11.9108C12.4508 84.8502 12.8608 85.2702 12.8608 85.8002C12.8608 86.3302 12.4408 86.7502 11.9108 86.7502H9.49078V94.5002C9.49078 95.1402 9.03078 95.6502 8.34078 95.6502C7.65078 95.6502 7.19078 95.1402 7.19078 94.5002V86.7502H5.75078C5.21078 86.7502 4.80078 86.3302 4.80078 85.8002C4.80078 85.2702 5.22078 84.8502 5.75078 84.8502H7.19078V83.2402C7.19078 80.6702 8.44078 79.0802 11.2708 79.0802H12.1308C12.6708 79.0802 13.0808 79.5002 13.0808 80.0302C13.0808 80.5602 12.6608 80.9802 12.1308 80.9802V80.9902ZM16.2708 95.6602C15.5908 95.6602 15.1208 95.1502 15.1208 94.5102V80.1402C15.1208 79.5002 15.5808 78.9902 16.2708 78.9902C16.9608 78.9902 17.4208 79.5002 17.4208 80.1402V94.5102C17.4208 95.1502 16.9608 95.6602 16.2708 95.6602Z" fill="white"/>
<path d="M21.5705 80.3105C22.3005 80.3105 22.9105 80.9206 22.9105 81.6506C22.9105 82.3806 22.3005 82.9905 21.5705 82.9905C20.8405 82.9905 20.2305 82.3806 20.2305 81.6506C20.2305 80.9206 20.8405 80.3105 21.5705 80.3105ZM21.5705 95.6606C20.8905 95.6606 20.4205 95.1506 20.4205 94.5106V85.8105C20.4205 85.1705 20.9105 84.6606 21.5705 84.6606C22.2305 84.6606 22.7205 85.1705 22.7205 85.8105V94.5106C22.7205 95.1506 22.2605 95.6606 21.5705 95.6606Z" fill="white"/>
<path d="M30.491 100.231C29.121 100.231 27.661 99.9606 26.241 99.1506C25.821 98.9106 25.631 98.5905 25.631 98.2505C25.631 97.5405 26.391 96.9805 27.271 97.4905C28.351 98.1305 29.371 98.3706 30.351 98.3706C33.111 98.3706 33.921 97.0806 33.921 94.8706V93.3105C33.241 94.5105 31.791 95.3605 30.201 95.3605C27.001 95.3605 25.041 92.9205 25.041 89.9605C25.041 87.0005 26.971 84.5605 30.201 84.5605C31.861 84.5605 33.301 85.4205 33.991 86.6105V85.8306C33.991 85.1206 34.431 84.6606 35.091 84.6606C35.751 84.6606 36.211 85.1205 36.211 85.8105V94.7105C36.211 98.0805 34.571 100.231 30.491 100.231ZM30.641 86.4905C28.661 86.4905 27.341 87.9605 27.341 89.9605C27.341 91.9605 28.661 93.4305 30.641 93.4305C32.621 93.4305 33.921 91.8705 33.921 89.9605C33.921 88.0505 32.621 86.4905 30.641 86.4905Z" fill="white"/>
<path d="M47.8205 95.6602C47.1405 95.6602 46.6705 95.1502 46.6705 94.5102V89.6202C46.6705 87.9102 45.7405 86.6402 43.9105 86.6402C42.0805 86.6402 41.0305 87.9802 41.0305 89.6502V94.5102C41.0305 95.1502 40.5405 95.6602 39.8805 95.6602C39.2205 95.6602 38.7305 95.1502 38.7305 94.5102V80.1602C38.7305 79.4302 39.2205 78.9902 39.8805 78.9902C40.5405 78.9902 41.0305 79.3602 41.0305 80.1602V86.6102C41.7105 85.2902 42.9405 84.5602 44.5505 84.5602C47.3605 84.5602 48.9705 86.6402 48.9705 89.5202V94.5102C48.9705 95.1202 48.5505 95.6602 47.8205 95.6602Z" fill="white"/>
<path d="M54.2217 95.6598C53.5417 95.6598 53.0717 95.1498 53.0717 94.5098V86.7598H51.2117C50.6717 86.7598 50.2617 86.3398 50.2617 85.8098C50.2617 85.2798 50.6817 84.8598 51.2117 84.8598H53.0717V81.6598C53.0717 81.0198 53.5317 80.5098 54.2217 80.5098C54.9117 80.5098 55.3717 81.0198 55.3717 81.6598V84.8598H57.4717C58.0117 84.8598 58.4217 85.2798 58.4217 85.8098C58.4217 86.3398 58.0017 86.7598 57.4717 86.7598H55.3717V94.5098C55.3717 95.1498 54.9117 95.6598 54.2217 95.6598Z" fill="white"/>
<path d="M68.1506 86.1005C68.3506 86.3205 68.4906 86.5406 68.4906 86.9106C68.4906 87.4006 68.1006 87.8405 67.4406 87.8405C67.0206 87.8405 66.7606 87.5005 66.4606 87.2505C65.9006 86.7605 65.1906 86.4905 64.3806 86.4905C62.1106 86.4905 60.9306 88.2006 60.9306 90.1606C60.9306 92.1206 62.1006 93.8306 64.3806 93.8306C65.1906 93.8306 65.9006 93.5605 66.4606 93.0705C66.7506 92.8305 67.0206 92.4806 67.4406 92.4806C68.1006 92.4806 68.4906 92.9206 68.4906 93.4106C68.4906 93.7806 68.3406 94.0006 68.1506 94.2206C67.4206 95.1006 65.9006 95.7606 64.3606 95.7606C60.7706 95.7606 58.6406 93.2906 58.6406 90.1606C58.6406 87.0306 60.7706 84.5605 64.3606 84.5605C65.9006 84.5605 67.4206 85.2205 68.1506 86.1005Z" fill="white"/>
<path d="M78.9113 95.6601C78.2313 95.6601 77.7913 95.1501 77.7913 94.5101V94.2901C77.0613 95.2201 75.9112 95.7601 74.3412 95.7601C71.9712 95.7601 70.2812 94.4201 70.2812 92.4601C70.2812 90.2801 72.0613 89.1401 74.4413 89.1401C75.8113 89.1401 76.9612 89.6501 77.7412 90.3901V89.3401C77.7412 87.4101 76.9312 86.5301 74.8112 86.5301C73.7812 86.5301 73.0713 86.7301 72.3913 86.9701C72.1713 87.0401 71.9012 87.1701 71.6312 87.1701C71.0212 87.1701 70.6513 86.7501 70.6513 86.2201C70.6513 85.6901 71.1113 85.3601 71.7313 85.1201C72.5913 84.7801 73.9113 84.5801 75.0113 84.5801C78.2413 84.5801 80.0513 86.2201 80.0513 89.2001V94.5301C80.0513 95.1701 79.6813 95.6801 78.9313 95.6801L78.9113 95.6601ZM75.1213 90.7201C73.5813 90.7201 72.5813 91.3601 72.5813 92.4601C72.5813 93.5601 73.6113 94.2001 75.0713 94.2001C76.5313 94.2001 77.7313 93.4901 77.7313 92.4601C77.7313 91.3601 76.4113 90.7201 75.1113 90.7201H75.1213Z" fill="white"/>
<path d="M86.8702 95.7606C85.3302 95.7606 83.9602 95.2706 82.9802 94.5106C82.6402 94.2406 82.4902 93.8705 82.4902 93.5605C82.4902 93.0705 82.8802 92.7505 83.3702 92.7505C83.7602 92.7505 84.0102 92.9005 84.2702 93.0905C84.9302 93.5805 85.8602 94.0406 87.0302 94.0406C88.3502 94.0406 89.0602 93.5506 89.0602 92.7906C89.0602 91.9606 88.3802 91.6405 86.6602 91.1805C83.6502 90.3705 82.5502 89.3505 82.5502 87.5905C82.5502 85.8305 84.2402 84.5605 86.8802 84.5605C87.8802 84.5605 89.0102 84.8005 89.9102 85.2405C90.5702 85.5605 91.0302 85.9506 91.0302 86.4406C91.0302 86.8806 90.7802 87.3006 90.1502 87.3006C89.8302 87.3006 89.5102 87.1505 89.1502 86.9605C88.4702 86.5905 87.7102 86.4006 86.8302 86.4006C85.6102 86.4006 84.7802 86.7205 84.7802 87.5705C84.7802 88.4205 85.5102 88.6705 87.2702 89.1805C89.9102 89.9405 91.2802 90.6505 91.2802 92.6305C91.2802 94.4405 89.7602 95.7606 86.8602 95.7606H86.8702Z" fill="white"/>
<path d="M103.371 90.18C103.371 90.57 103.151 90.96 102.491 90.96H95.1805C95.3005 92.65 96.4506 93.92 98.4806 93.92C99.7506 93.92 100.511 93.48 101.311 92.72C101.511 92.52 101.771 92.35 102.071 92.35C102.581 92.35 103.021 92.72 103.021 93.3C103.021 93.54 102.901 93.76 102.731 93.96C101.801 95.04 100.141 95.74 98.3805 95.74C94.7405 95.74 92.8105 93.2 92.8105 90.14C92.8105 87.08 95.1306 84.54 98.2906 84.54C101.451 84.54 103.371 87.03 103.371 90.16V90.18ZM98.2906 86.39C96.6006 86.39 95.4605 87.59 95.2405 89.1H101.251C101.051 87.63 99.9606 86.39 98.2906 86.39Z" fill="white"/>
<path d="M51.7991 6.54004H5.86914V52.47L21.1991 37.14L52.3191 68.26L67.5891 52.99L36.4691 21.87L51.7991 6.54004Z" fill="white"/>
<path d="M90.579 30.2603L67.169 6.57031L52.959 20.6403L59.419 27.1703L65.909 20.7303L73.069 27.9703L66.579 34.4203L76.369 44.3403L66.359 54.2203H100.979V20.3703L90.579 30.2603Z" fill="white"/>
</g>
<defs>
<clipPath id="clip0_721_9232">
<rect width="107.29" height="107.29" fill="white"/>
</clipPath>
</defs>
</svg>
