<svg width="186" height="86" viewBox="0 0 186 86" fill="none" xmlns="http://www.w3.org/2000/svg">
<g clip-path="url(#clip0_721_9261)">
<path d="M72.4001 61.9099H71.5501C70.0101 61.9099 69.1301 62.4799 69.1301 64.4799V66.6799H72.1201C72.7801 66.6799 73.3001 67.1899 73.3001 67.8599C73.3001 68.5299 72.7901 69.0399 72.1201 69.0399H69.1301V78.6099C69.1301 79.3999 68.5601 80.0299 67.7101 80.0299C66.8601 80.0299 66.2901 79.3999 66.2901 78.6099V69.0399H64.5101C63.8401 69.0399 63.3301 68.5299 63.3301 67.8599C63.3301 67.1899 63.8401 66.6799 64.5101 66.6799H66.2901V64.6899C66.2901 61.5199 67.8301 59.5599 71.3301 59.5599H72.3901C73.0501 59.5599 73.5701 60.0699 73.5701 60.7399C73.5701 61.4099 73.0601 61.9199 72.3901 61.9199L72.4001 61.9099ZM77.5001 80.0199C76.6501 80.0199 76.0801 79.3899 76.0801 78.5999V60.8399C76.0801 60.0499 76.6501 59.4199 77.5001 59.4199C78.3501 59.4199 78.9201 60.0499 78.9201 60.8399V78.5999C78.9201 79.3899 78.3501 80.0199 77.5001 80.0199Z" fill="black"/>
<path d="M84.0506 61.0596C84.9606 61.0596 85.7106 61.8096 85.7106 62.7196C85.7106 63.6296 84.9606 64.3796 84.0506 64.3796C83.1406 64.3796 82.3906 63.6296 82.3906 62.7196C82.3906 61.8096 83.1406 61.0596 84.0506 61.0596ZM84.0506 80.0196C83.2106 80.0196 82.6306 79.3896 82.6306 78.5996V67.8496C82.6306 67.0596 83.2306 66.4296 84.0506 66.4296C84.8706 66.4296 85.4706 67.0596 85.4706 67.8496V78.5996C85.4706 79.3896 84.9006 80.0196 84.0506 80.0196Z" fill="black"/>
<path d="M95.0798 85.6703C93.3898 85.6703 91.5798 85.3403 89.8298 84.3403C89.3198 84.0403 89.0698 83.6503 89.0698 83.2203C89.0698 82.3403 90.0098 81.6503 91.0898 82.2803C92.4198 83.0603 93.6898 83.3703 94.8898 83.3703C98.2998 83.3703 99.2999 81.7703 99.2999 79.0503V77.1203C98.4499 78.6003 96.6698 79.6603 94.7098 79.6603C90.7498 79.6603 88.3398 76.6403 88.3398 72.9903C88.3398 69.3403 90.7298 66.3203 94.7098 66.3203C96.7598 66.3203 98.5398 67.3803 99.3898 68.8603V67.8903C99.3898 67.0103 99.9298 66.4403 100.75 66.4403C101.57 66.4403 102.14 67.0103 102.14 67.8603V78.8503C102.14 83.0203 100.12 85.6803 95.0698 85.6803L95.0798 85.6703ZM95.2598 68.7003C92.8098 68.7003 91.1798 70.5103 91.1798 72.9903C91.1798 75.4703 92.8098 77.2803 95.2598 77.2803C97.7098 77.2803 99.3098 75.3503 99.3098 72.9903C99.3098 70.6303 97.7098 68.7003 95.2598 68.7003Z" fill="black"/>
<path d="M116.48 80.0199C115.63 80.0199 115.06 79.3899 115.06 78.5999V72.5599C115.06 70.4499 113.91 68.8799 111.65 68.8799C109.39 68.8799 108.09 70.5399 108.09 72.5899V78.5999C108.09 79.3899 107.49 80.0199 106.67 80.0199C105.85 80.0199 105.25 79.3899 105.25 78.5999V60.8699C105.25 59.9599 105.85 59.4199 106.67 59.4199C107.49 59.4199 108.09 59.8699 108.09 60.8699V68.8399C108.94 67.2099 110.45 66.2999 112.44 66.2999C115.91 66.2999 117.9 68.8699 117.9 72.4299V78.5899C117.9 79.3399 117.39 80.0099 116.48 80.0099V80.0199Z" fill="black"/>
<path d="M124.4 80.02C123.56 80.02 122.98 79.39 122.98 78.6V69.03H120.69C120.03 69.03 119.51 68.52 119.51 67.85C119.51 67.18 120.02 66.67 120.69 66.67H122.98V62.71C122.98 61.92 123.55 61.29 124.4 61.29C125.25 61.29 125.82 61.92 125.82 62.71V66.67H128.42C129.08 66.67 129.6 67.18 129.6 67.85C129.6 68.52 129.09 69.03 128.42 69.03H125.82V78.6C125.82 79.39 125.25 80.02 124.4 80.02Z" fill="black"/>
<path d="M141.609 68.2203C141.849 68.4903 142.029 68.7603 142.029 69.2203C142.029 69.8203 141.549 70.3703 140.729 70.3703C140.219 70.3703 139.879 69.9503 139.519 69.6503C138.829 69.0503 137.949 68.7103 136.949 68.7103C134.139 68.7103 132.689 70.8203 132.689 73.2403C132.689 75.6603 134.139 77.7703 136.949 77.7703C137.949 77.7703 138.819 77.4403 139.519 76.8303C139.879 76.5303 140.209 76.1103 140.729 76.1103C141.549 76.1103 142.029 76.6503 142.029 77.2603C142.029 77.7103 141.849 77.9803 141.609 78.2603C140.699 79.3503 138.829 80.1603 136.929 80.1603C132.489 80.1603 129.859 77.1103 129.859 73.2403C129.859 69.3703 132.489 66.3203 136.929 66.3203C138.829 66.3203 140.699 67.1403 141.609 68.2203Z" fill="black"/>
<path d="M154.89 80.0198C154.04 80.0198 153.5 79.3898 153.5 78.5998V78.3298C152.59 79.4798 151.17 80.1398 149.24 80.1398C146.31 80.1398 144.23 78.4798 144.23 76.0598C144.23 73.3698 146.43 71.9498 149.36 71.9498C151.05 71.9498 152.47 72.5798 153.44 73.4898V72.1898C153.44 69.7998 152.44 68.7198 149.82 68.7198C148.55 68.7198 147.68 68.9598 146.83 69.2598C146.56 69.3498 146.23 69.4998 145.89 69.4998C145.14 69.4998 144.68 68.9898 144.68 68.3198C144.68 67.6498 145.25 67.2598 146.01 66.9598C147.07 66.5398 148.7 66.2998 150.06 66.2998C154.05 66.2998 156.28 68.3198 156.28 72.0098V78.5898C156.28 79.3798 155.83 80.0098 154.89 80.0098V80.0198ZM150.21 73.9198C148.31 73.9198 147.07 74.7098 147.07 76.0598C147.07 77.4098 148.34 78.1998 150.15 78.1998C151.96 78.1998 153.44 77.3198 153.44 76.0598C153.44 74.6998 151.81 73.9198 150.21 73.9198Z" fill="black"/>
<path d="M164.74 80.1503C162.84 80.1503 161.15 79.5503 159.94 78.6103C159.52 78.2803 159.34 77.8203 159.34 77.4303C159.34 76.8303 159.82 76.4303 160.43 76.4303C160.91 76.4303 161.22 76.6103 161.55 76.8503C162.37 77.4503 163.51 78.0303 164.96 78.0303C166.59 78.0303 167.47 77.4303 167.47 76.4903C167.47 75.4603 166.62 75.0703 164.51 74.5003C160.8 73.5003 159.44 72.2403 159.44 70.0603C159.44 67.8803 161.52 66.3203 164.78 66.3203C166.02 66.3203 167.41 66.6203 168.53 67.1703C169.34 67.5603 169.92 68.0503 169.92 68.6503C169.92 69.1903 169.62 69.7103 168.83 69.7103C168.44 69.7103 168.04 69.5303 167.59 69.2903C166.74 68.8403 165.81 68.6003 164.72 68.6003C163.21 68.6003 162.18 68.9903 162.18 70.0503C162.18 71.1103 163.09 71.4103 165.26 72.0403C168.52 72.9803 170.21 73.8503 170.21 76.3003C170.21 78.5303 168.34 80.1703 164.74 80.1703V80.1503Z" fill="black"/>
<path d="M185.12 73.2596C185.12 73.7396 184.85 74.2296 184.03 74.2296H175C175.15 76.3096 176.57 77.8796 179.08 77.8796C180.65 77.8796 181.59 77.3396 182.58 76.3996C182.82 76.1596 183.15 75.9496 183.52 75.9496C184.15 75.9496 184.7 76.3996 184.7 77.1296C184.7 77.4296 184.55 77.6996 184.34 77.9496C183.19 79.2796 181.14 80.1496 178.96 80.1496C174.46 80.1496 172.07 77.0096 172.07 73.2296C172.07 69.4496 174.94 66.3096 178.83 66.3096C182.72 66.3096 185.11 69.3896 185.11 73.2596H185.12ZM178.84 68.5796C176.76 68.5796 175.34 70.0596 175.07 71.9296H182.5C182.26 70.1196 180.9 68.5796 178.85 68.5796H178.84Z" fill="black"/>
<path d="M45.93 0H0V45.93L15.33 30.59L46.45 61.71L61.71 46.45L30.59 15.33L45.93 0Z" fill="black"/>
<path d="M84.7098 23.7095L61.2898 0.0195312L47.0898 14.0995L53.5498 20.6295L60.0398 14.1895L67.1998 21.4295L60.7098 27.8795L70.4998 37.7895L60.4898 47.6795H95.1098V13.8295L84.7098 23.7095Z" fill="black"/>
</g>
<defs>
<clipPath id="clip0_721_9261">
<rect width="185.12" height="85.67" fill="black"/>
</clipPath>
</defs>
</svg>
